<?xml version="1.0"?>
<svg xmlns="http://www.w3.org/2000/svg" xmlns:xlink="http://www.w3.org/1999/xlink" version="1.1" viewBox="0 0 192 192" width="30px" height="30px"><g fill="none" fill-rule="nonzero" stroke="none" stroke-width="1" stroke-linecap="butt" stroke-linejoin="miter" stroke-miterlimit="10" stroke-dasharray="" stroke-dashoffset="0" font-family="none" font-weight="none" font-size="none" text-anchor="none" style="mix-blend-mode: normal"><path d="M0,192v-192h192v192z" fill="none"/><path d="M0,96c0,-53.01934 42.98066,-96 96,-96c53.01934,0 96,42.98066 96,96c0,53.01934 -42.98066,96 -96,96c-53.01934,0 -96,-42.98066 -96,-96zM96,176.64c44.53624,0 80.64,-36.10376 80.64,-80.64c0,-44.53624 -36.10376,-80.64 -80.64,-80.64c-44.53624,0 -80.64,36.10376 -80.64,80.64c0,44.53624 36.10376,80.64 80.64,80.64z" fill="#ffffff"/><g fill="#ffffff"><path d="M61.184,48.128c-1.11357,0 -2.22836,0.42418 -3.077,1.275l-8.704,8.704c-1.70163,1.70163 -1.70163,4.45672 0,6.154l31.739,31.739l-31.739,31.739c-1.70163,1.70163 -1.70163,4.45672 0,6.154l8.704,8.704c1.70163,1.70163 4.45672,1.70163 6.154,0l31.739,-31.739l31.739,31.739c1.69728,1.70163 4.45672,1.70163 6.154,0l8.704,-8.704c1.70163,-1.70163 1.70163,-4.45672 0,-6.154l-31.739,-31.739l31.739,-31.739c1.70163,-1.69728 1.70163,-4.45672 0,-6.154l-8.704,-8.704c-1.70163,-1.70163 -4.45672,-1.70163 -6.154,0l-31.739,31.739l-31.739,-31.739c-0.85082,-0.85082 -1.96343,-1.275 -3.077,-1.275z"/></g><path d="M96,192c-53.01934,0 -96,-42.98066 -96,-96v0c0,-53.01934 42.98066,-96 96,-96v0c53.01934,0 96,42.98066 96,96v0c0,53.01934 -42.98066,96 -96,96z" fill="none"/><path d="M96,180.48c-46.65702,0 -84.48,-37.82298 -84.48,-84.48v0c0,-46.65702 37.82298,-84.48 84.48,-84.48h0c46.65702,0 84.48,37.82298 84.48,84.48v0c0,46.65702 -37.82298,84.48 -84.48,84.48z" fill="none"/><path d="M96,192c-53.01934,0 -96,-42.98066 -96,-96v0c0,-53.01934 42.98066,-96 96,-96v0c53.01934,0 96,42.98066 96,96v0c0,53.01934 -42.98066,96 -96,96z" fill="none"/><path d="M96,176.64c-44.53624,0 -80.64,-36.10376 -80.64,-80.64v0c0,-44.53624 36.10376,-80.64 80.64,-80.64h0c44.53624,0 80.64,36.10376 80.64,80.64v0c0,44.53624 -36.10376,80.64 -80.64,80.64z" fill="none"/><path d="M96,192c-53.01934,0 -96,-42.98066 -96,-96v0c0,-53.01934 42.98066,-96 96,-96v0c53.01934,0 96,42.98066 96,96v0c0,53.01934 -42.98066,96 -96,96z" fill="none"/><path d="M96,176.64c-44.53624,0 -80.64,-36.10376 -80.64,-80.64v0c0,-44.53624 36.10376,-80.64 80.64,-80.64h0c44.53624,0 80.64,36.10376 80.64,80.64v0c0,44.53624 -36.10376,80.64 -80.64,80.64z" fill="none"/><path d="M96,192c-53.01934,0 -96,-42.98066 -96,-96v0c0,-53.01934 42.98066,-96 96,-96v0c53.01934,0 96,42.98066 96,96v0c0,53.01934 -42.98066,96 -96,96z" fill="none"/><path d="M96,176.64c-44.53624,0 -80.64,-36.10376 -80.64,-80.64v0c0,-44.53624 36.10376,-80.64 80.64,-80.64h0c44.53624,0 80.64,36.10376 80.64,80.64v0c0,44.53624 -36.10376,80.64 -80.64,80.64z" fill="none"/><path d="M96,192c-53.01934,0 -96,-42.98066 -96,-96v0c0,-53.01934 42.98066,-96 96,-96v0c53.01934,0 96,42.98066 96,96v0c0,53.01934 -42.98066,96 -96,96z" fill="none"/><path d="M96,176.64c-44.53624,0 -80.64,-36.10376 -80.64,-80.64v0c0,-44.53624 36.10376,-80.64 80.64,-80.64h0c44.53624,0 80.64,36.10376 80.64,80.64v0c0,44.53624 -36.10376,80.64 -80.64,80.64z" fill="none"/><path d="M96,192c-53.01934,0 -96,-42.98066 -96,-96v0c0,-53.01934 42.98066,-96 96,-96v0c53.01934,0 96,42.98066 96,96v0c0,53.01934 -42.98066,96 -96,96z" fill="none"/><path d="M96,176.64c-44.53624,0 -80.64,-36.10376 -80.64,-80.64v0c0,-44.53624 36.10376,-80.64 80.64,-80.64h0c44.53624,0 80.64,36.10376 80.64,80.64v0c0,44.53624 -36.10376,80.64 -80.64,80.64z" fill="none"/><path d="M96,192c-53.01934,0 -96,-42.98066 -96,-96v0c0,-53.01934 42.98066,-96 96,-96v0c53.01934,0 96,42.98066 96,96v0c0,53.01934 -42.98066,96 -96,96z" fill="none"/><path d="M96,176.64c-44.53624,0 -80.64,-36.10376 -80.64,-80.64v0c0,-44.53624 36.10376,-80.64 80.64,-80.64h0c44.53624,0 80.64,36.10376 80.64,80.64v0c0,44.53624 -36.10376,80.64 -80.64,80.64z" fill="none"/><path d="M96,192c-53.01934,0 -96,-42.98066 -96,-96v0c0,-53.01934 42.98066,-96 96,-96v0c53.01934,0 96,42.98066 96,96v0c0,53.01934 -42.98066,96 -96,96z" fill="none"/><path d="M96,176.64c-44.53624,0 -80.64,-36.10376 -80.64,-80.64v0c0,-44.53624 36.10376,-80.64 80.64,-80.64h0c44.53624,0 80.64,36.10376 80.64,80.64v0c0,44.53624 -36.10376,80.64 -80.64,80.64z" fill="none"/><path d="M96,192c-53.01934,0 -96,-42.98066 -96,-96v0c0,-53.01934 42.98066,-96 96,-96v0c53.01934,0 96,42.98066 96,96v0c0,53.01934 -42.98066,96 -96,96z" fill="none"/><path d="M96,176.64c-44.53624,0 -80.64,-36.10376 -80.64,-80.64v0c0,-44.53624 36.10376,-80.64 80.64,-80.64h0c44.53624,0 80.64,36.10376 80.64,80.64v0c0,44.53624 -36.10376,80.64 -80.64,80.64z" fill="none"/><path d="M96,192c-53.01934,0 -96,-42.98066 -96,-96v0c0,-53.01934 42.98066,-96 96,-96v0c53.01934,0 96,42.98066 96,96v0c0,53.01934 -42.98066,96 -96,96z" fill="none"/><path d="M96,176.64c-44.53624,0 -80.64,-36.10376 -80.64,-80.64v0c0,-44.53624 36.10376,-80.64 80.64,-80.64h0c44.53624,0 80.64,36.10376 80.64,80.64v0c0,44.53624 -36.10376,80.64 -80.64,80.64z" fill="none"/><path d="M96,192c-53.01934,0 -96,-42.98066 -96,-96v0c0,-53.01934 42.98066,-96 96,-96v0c53.01934,0 96,42.98066 96,96v0c0,53.01934 -42.98066,96 -96,96z" fill="none"/><path d="M96,176.64c-44.53624,0 -80.64,-36.10376 -80.64,-80.64v0c0,-44.53624 36.10376,-80.64 80.64,-80.64h0c44.53624,0 80.64,36.10376 80.64,80.64v0c0,44.53624 -36.10376,80.64 -80.64,80.64z" fill="none"/><path d="M96,192c-53.01934,0 -96,-42.98066 -96,-96v0c0,-53.01934 42.98066,-96 96,-96v0c53.01934,0 96,42.98066 96,96v0c0,53.01934 -42.98066,96 -96,96z" fill="none"/><path d="M96,176.64c-44.53624,0 -80.64,-36.10376 -80.64,-80.64v0c0,-44.53624 36.10376,-80.64 80.64,-80.64h0c44.53624,0 80.64,36.10376 80.64,80.64v0c0,44.53624 -36.10376,80.64 -80.64,80.64z" fill="none"/><path d="M96,192c-53.01934,0 -96,-42.98066 -96,-96v0c0,-53.01934 42.98066,-96 96,-96v0c53.01934,0 96,42.98066 96,96v0c0,53.01934 -42.98066,96 -96,96z" fill="none"/><path d="M96,176.64c-44.53624,0 -80.64,-36.10376 -80.64,-80.64v0c0,-44.53624 36.10376,-80.64 80.64,-80.64h0c44.53624,0 80.64,36.10376 80.64,80.64v0c0,44.53624 -36.10376,80.64 -80.64,80.64z" fill="none"/><path d="M96,192c-53.01934,0 -96,-42.98066 -96,-96v0c0,-53.01934 42.98066,-96 96,-96v0c53.01934,0 96,42.98066 96,96v0c0,53.01934 -42.98066,96 -96,96z" fill="none"/><path d="M96,176.64c-44.53624,0 -80.64,-36.10376 -80.64,-80.64v0c0,-44.53624 36.10376,-80.64 80.64,-80.64h0c44.53624,0 80.64,36.10376 80.64,80.64v0c0,44.53624 -36.10376,80.64 -80.64,80.64z" fill="none"/><path d="M96,192c-53.01934,0 -96,-42.98066 -96,-96v0c0,-53.01934 42.98066,-96 96,-96v0c53.01934,0 96,42.98066 96,96v0c0,53.01934 -42.98066,96 -96,96z" fill="none"/><path d="M96,176.64c-44.53624,0 -80.64,-36.10376 -80.64,-80.64v0c0,-44.53624 36.10376,-80.64 80.64,-80.64h0c44.53624,0 80.64,36.10376 80.64,80.64v0c0,44.53624 -36.10376,80.64 -80.64,80.64z" fill="none"/><path d="M96,192c-53.01934,0 -96,-42.98066 -96,-96v0c0,-53.01934 42.98066,-96 96,-96v0c53.01934,0 96,42.98066 96,96v0c0,53.01934 -42.98066,96 -96,96z" fill="none"/><path d="M96,176.64c-44.53624,0 -80.64,-36.10376 -80.64,-80.64v0c0,-44.53624 36.10376,-80.64 80.64,-80.64h0c44.53624,0 80.64,36.10376 80.64,80.64v0c0,44.53624 -36.10376,80.64 -80.64,80.64z" fill="none"/><path d="M96,192c-53.01934,0 -96,-42.98066 -96,-96v0c0,-53.01934 42.98066,-96 96,-96v0c53.01934,0 96,42.98066 96,96v0c0,53.01934 -42.98066,96 -96,96z" fill="none"/><path d="M96,176.64c-44.53624,0 -80.64,-36.10376 -80.64,-80.64v0c0,-44.53624 36.10376,-80.64 80.64,-80.64h0c44.53624,0 80.64,36.10376 80.64,80.64v0c0,44.53624 -36.10376,80.64 -80.64,80.64z" fill="none"/><path d="M96,192c-53.01934,0 -96,-42.98066 -96,-96v0c0,-53.01934 42.98066,-96 96,-96v0c53.01934,0 96,42.98066 96,96v0c0,53.01934 -42.98066,96 -96,96z" fill="none"/><path d="M96,176.64c-44.53624,0 -80.64,-36.10376 -80.64,-80.64v0c0,-44.53624 36.10376,-80.64 80.64,-80.64h0c44.53624,0 80.64,36.10376 80.64,80.64v0c0,44.53624 -36.10376,80.64 -80.64,80.64z" fill="none"/><path d="M96,192c-53.01934,0 -96,-42.98066 -96,-96v0c0,-53.01934 42.98066,-96 96,-96v0c53.01934,0 96,42.98066 96,96v0c0,53.01934 -42.98066,96 -96,96z" fill="none"/><path d="M96,176.64c-44.53624,0 -80.64,-36.10376 -80.64,-80.64v0c0,-44.53624 36.10376,-80.64 80.64,-80.64h0c44.53624,0 80.64,36.10376 80.64,80.64v0c0,44.53624 -36.10376,80.64 -80.64,80.64z" fill="none"/></g></svg>
