<?xml version="1.0"?>
<svg xmlns="http://www.w3.org/2000/svg" xmlns:xlink="http://www.w3.org/1999/xlink" version="1.1" viewBox="0 0 192 192" width="50px" height="50px"><g transform=""><g fill="none" fill-rule="nonzero" stroke="none" stroke-width="1" stroke-linecap="butt" stroke-linejoin="miter" stroke-miterlimit="10" stroke-dasharray="" stroke-dashoffset="0" font-family="none" font-weight="none" font-size="none" text-anchor="none" style="mix-blend-mode: normal"><path d="M0,192v-192h192v192z" fill="none"/><path d="M0,96c0,-53.01934 42.98066,-96 96,-96c53.01934,0 96,42.98066 96,96c0,53.01934 -42.98066,96 -96,96c-53.01934,0 -96,-42.98066 -96,-96zM96,180.48c46.65702,0 84.48,-37.82298 84.48,-84.48c0,-46.65702 -37.82298,-84.48 -84.48,-84.48c-46.65702,0 -84.48,37.82298 -84.48,84.48c0,46.65702 37.82298,84.48 84.48,84.48z" fill="#ffffff"/><g fill="#ffffff"><g id="surface1"><path d="M135.66113,45.65839c-2.72745,0 -5.44635,1.06875 -7.524,3.1464l-1.7784,1.7784l15.048,15.048c-0.00855,0.00855 1.7784,-1.7784 1.7784,-1.7784c4.16385,-4.16385 4.1553,-10.8927 0,-15.048c-2.0862,-2.07765 -4.79655,-3.1464 -7.524,-3.1464zM123.00713,54.48199c-0.4959,0.0684 -0.9576,0.31635 -1.2996,0.684l-70.9992,71.0676c-0.28215,0.2565 -0.4959,0.58995 -0.6156,0.9576l-4.3776,16.416c-0.19665,0.7524 0.02565,1.54755 0.57285,2.09475c0.5472,0.5472 1.34235,0.7695 2.09475,0.57285l16.416,-4.3776c0.36765,-0.1197 0.7011,-0.33345 0.9576,-0.6156l71.0676,-70.9992c0.8721,-0.84645 0.88065,-2.2401 0.0342,-3.1122c-0.84645,-0.8721 -2.2401,-0.88065 -3.1122,-0.0342l-70.6572,70.6572l-8.892,-8.892l70.6572,-70.6572c0.65835,-0.6327 0.855,-1.61595 0.48735,-2.45385c-0.36765,-0.8379 -1.2141,-1.35945 -2.12895,-1.30815c-0.0684,0 -0.1368,0 -0.2052,0z"/></g></g><path d="M96,192c-53.01934,0 -96,-42.98066 -96,-96v0c0,-53.01934 42.98066,-96 96,-96v0c53.01934,0 96,42.98066 96,96v0c0,53.01934 -42.98066,96 -96,96z" fill="none"/><path d="M96,176.64c-44.53624,0 -80.64,-36.10376 -80.64,-80.64v0c0,-44.53624 36.10376,-80.64 80.64,-80.64h0c44.53624,0 80.64,36.10376 80.64,80.64v0c0,44.53624 -36.10376,80.64 -80.64,80.64z" fill="none"/><path d="M96,191.04c-52.48914,0 -95.04,-42.55086 -95.04,-95.04v0c0,-52.48914 42.55086,-95.04 95.04,-95.04h0c52.48914,0 95.04,42.55086 95.04,95.04v0c0,52.48914 -42.55086,95.04 -95.04,95.04z" fill="none"/><path d="M96,175.68c-44.00605,0 -79.68,-35.67395 -79.68,-79.68v0c0,-44.00605 35.67395,-79.68 79.68,-79.68v0c44.00605,0 79.68,35.67395 79.68,79.68v0c0,44.00605 -35.67395,79.68 -79.68,79.68z" fill="none"/><path d="M96,190.08c-51.95895,0 -94.08,-42.12105 -94.08,-94.08v0c0,-51.95895 42.12105,-94.08 94.08,-94.08h0c51.95895,0 94.08,42.12105 94.08,94.08v0c0,51.95895 -42.12105,94.08 -94.08,94.08z" fill="none"/><path d="M96,174.72c-43.47586,0 -78.72,-35.24414 -78.72,-78.72v0c0,-43.47586 35.24414,-78.72 78.72,-78.72v0c43.47586,0 78.72,35.24414 78.72,78.72v0c0,43.47586 -35.24414,78.72 -78.72,78.72z" fill="none"/><path d="M96,191.04c-52.48914,0 -95.04,-42.55086 -95.04,-95.04v0c0,-52.48914 42.55086,-95.04 95.04,-95.04h0c52.48914,0 95.04,42.55086 95.04,95.04v0c0,52.48914 -42.55086,95.04 -95.04,95.04z" fill="none"/><path d="M96,175.68c-44.00605,0 -79.68,-35.67395 -79.68,-79.68v0c0,-44.00605 35.67395,-79.68 79.68,-79.68v0c44.00605,0 79.68,35.67395 79.68,79.68v0c0,44.00605 -35.67395,79.68 -79.68,79.68z" fill="none"/><path d="M96,192c-53.01934,0 -96,-42.98066 -96,-96v0c0,-53.01934 42.98066,-96 96,-96v0c53.01934,0 96,42.98066 96,96v0c0,53.01934 -42.98066,96 -96,96z" fill="none"/><path d="M96,176.64c-44.53624,0 -80.64,-36.10376 -80.64,-80.64v0c0,-44.53624 36.10376,-80.64 80.64,-80.64h0c44.53624,0 80.64,36.10376 80.64,80.64v0c0,44.53624 -36.10376,80.64 -80.64,80.64z" fill="none"/><path d="M96,197.76c-56.2005,0 -101.76,-45.5595 -101.76,-101.76v0c0,-56.2005 45.5595,-101.76 101.76,-101.76h0c56.2005,0 101.76,45.5595 101.76,101.76v0c0,56.2005 -45.5595,101.76 -101.76,101.76z" fill="none"/><path d="M96,182.4c-47.7174,0 -86.4,-38.6826 -86.4,-86.4v0c0,-47.7174 38.6826,-86.4 86.4,-86.4v0c47.7174,0 86.4,38.6826 86.4,86.4v0c0,47.7174 -38.6826,86.4 -86.4,86.4z" fill="none"/><path d="M96,197.76c-56.2005,0 -101.76,-45.5595 -101.76,-101.76v0c0,-56.2005 45.5595,-101.76 101.76,-101.76h0c56.2005,0 101.76,45.5595 101.76,101.76v0c0,56.2005 -45.5595,101.76 -101.76,101.76z" fill="none"/><path d="M96,182.4c-47.7174,0 -86.4,-38.6826 -86.4,-86.4v0c0,-47.7174 38.6826,-86.4 86.4,-86.4v0c47.7174,0 86.4,38.6826 86.4,86.4v0c0,47.7174 -38.6826,86.4 -86.4,86.4z" fill="none"/><path d="M96,197.76c-56.2005,0 -101.76,-45.5595 -101.76,-101.76v0c0,-56.2005 45.5595,-101.76 101.76,-101.76v0c56.2005,0 101.76,45.5595 101.76,101.76v0c0,56.2005 -45.5595,101.76 -101.76,101.76z" fill="none"/><path d="M96,182.4c-47.7174,0 -86.4,-38.6826 -86.4,-86.4v0c0,-47.7174 38.6826,-86.4 86.4,-86.4h0c47.7174,0 86.4,38.6826 86.4,86.4v0c0,47.7174 -38.6826,86.4 -86.4,86.4z" fill="none"/><path d="M96,192c-53.01934,0 -96,-42.98066 -96,-96v0c0,-53.01934 42.98066,-96 96,-96h0c53.01934,0 96,42.98066 96,96v0c0,53.01934 -42.98066,96 -96,96z" fill="none"/><path d="M96,176.64c-44.53624,0 -80.64,-36.10376 -80.64,-80.64v0c0,-44.53624 36.10376,-80.64 80.64,-80.64v0c44.53624,0 80.64,36.10376 80.64,80.64v0c0,44.53624 -36.10376,80.64 -80.64,80.64z" fill="none"/><path d="M96,191.04c-52.48914,0 -95.04,-42.55086 -95.04,-95.04v0c0,-52.48914 42.55086,-95.04 95.04,-95.04v0c52.48914,0 95.04,42.55086 95.04,95.04v0c0,52.48914 -42.55086,95.04 -95.04,95.04z" fill="none"/><path d="M96,175.68c-44.00605,0 -79.68,-35.67395 -79.68,-79.68v0c0,-44.00605 35.67395,-79.68 79.68,-79.68h0c44.00605,0 79.68,35.67395 79.68,79.68v0c0,44.00605 -35.67395,79.68 -79.68,79.68z" fill="none"/><path d="M96,190.08c-51.95895,0 -94.08,-42.12105 -94.08,-94.08v0c0,-51.95895 42.12105,-94.08 94.08,-94.08v0c51.95895,0 94.08,42.12105 94.08,94.08v0c0,51.95895 -42.12105,94.08 -94.08,94.08z" fill="none"/><path d="M96,174.72c-43.47586,0 -78.72,-35.24414 -78.72,-78.72v0c0,-43.47586 35.24414,-78.72 78.72,-78.72h0c43.47586,0 78.72,35.24414 78.72,78.72v0c0,43.47586 -35.24414,78.72 -78.72,78.72z" fill="none"/><path d="M96,189.12c-51.42876,0 -93.12,-41.69124 -93.12,-93.12v0c0,-51.42876 41.69124,-93.12 93.12,-93.12h0c51.42876,0 93.12,41.69124 93.12,93.12v0c0,51.42876 -41.69124,93.12 -93.12,93.12z" fill="none"/><path d="M96,173.76c-42.94566,0 -77.76,-34.81434 -77.76,-77.76v0c0,-42.94566 34.81434,-77.76 77.76,-77.76v0c42.94566,0 77.76,34.81434 77.76,77.76v0c0,42.94566 -34.81434,77.76 -77.76,77.76z" fill="none"/><path d="M96,188.16c-50.89856,0 -92.16,-41.26144 -92.16,-92.16v0c0,-50.89856 41.26144,-92.16 92.16,-92.16h0c50.89856,0 92.16,41.26144 92.16,92.16v0c0,50.89856 -41.26144,92.16 -92.16,92.16z" fill="none"/><path d="M96,172.8c-42.41547,0 -76.8,-34.38453 -76.8,-76.8v0c0,-42.41547 34.38453,-76.8 76.8,-76.8v0c42.41547,0 76.8,34.38453 76.8,76.8v0c0,42.41547 -34.38453,76.8 -76.8,76.8z" fill="none"/><path d="M96,187.2c-50.36837,0 -91.2,-40.83163 -91.2,-91.2v0c0,-50.36837 40.83163,-91.2 91.2,-91.2v0c50.36837,0 91.2,40.83163 91.2,91.2v0c0,50.36837 -40.83163,91.2 -91.2,91.2z" fill="none"/><path d="M96,171.84c-41.88528,0 -75.84,-33.95472 -75.84,-75.84v0c0,-41.88528 33.95472,-75.84 75.84,-75.84h0c41.88528,0 75.84,33.95472 75.84,75.84v0c0,41.88528 -33.95472,75.84 -75.84,75.84z" fill="none"/><path d="M96,186.24c-49.83818,0 -90.24,-40.40182 -90.24,-90.24v0c0,-49.83818 40.40182,-90.24 90.24,-90.24v0c49.83818,0 90.24,40.40182 90.24,90.24v0c0,49.83818 -40.40182,90.24 -90.24,90.24z" fill="none"/><path d="M96,170.88c-41.35508,0 -74.88,-33.52492 -74.88,-74.88v0c0,-41.35508 33.52492,-74.88 74.88,-74.88h0c41.35508,0 74.88,33.52492 74.88,74.88v0c0,41.35508 -33.52492,74.88 -74.88,74.88z" fill="none"/><path d="M96,185.28c-49.30798,0 -89.28,-39.97202 -89.28,-89.28v0c0,-49.30798 39.97202,-89.28 89.28,-89.28h0c49.30798,0 89.28,39.97202 89.28,89.28v0c0,49.30798 -39.97202,89.28 -89.28,89.28z" fill="none"/><path d="M96,169.92c-40.82489,0 -73.92,-33.09511 -73.92,-73.92v0c0,-40.82489 33.09511,-73.92 73.92,-73.92v0c40.82489,0 73.92,33.09511 73.92,73.92v0c0,40.82489 -33.09511,73.92 -73.92,73.92z" fill="none"/><path d="M96,183.36c-48.2476,0 -87.36,-39.1124 -87.36,-87.36v0c0,-48.2476 39.1124,-87.36 87.36,-87.36v0c48.2476,0 87.36,39.1124 87.36,87.36v0c0,48.2476 -39.1124,87.36 -87.36,87.36z" fill="none"/><path d="M96,168c-39.7645,0 -72,-32.2355 -72,-72v0c0,-39.7645 32.2355,-72 72,-72h0c39.7645,0 72,32.2355 72,72v0c0,39.7645 -32.2355,72 -72,72z" fill="none"/><path d="M96,182.4c-47.7174,0 -86.4,-38.6826 -86.4,-86.4v0c0,-47.7174 38.6826,-86.4 86.4,-86.4h0c47.7174,0 86.4,38.6826 86.4,86.4v0c0,47.7174 -38.6826,86.4 -86.4,86.4z" fill="none"/><path d="M96,167.04c-39.23431,0 -71.04,-31.80569 -71.04,-71.04v0c0,-39.23431 31.80569,-71.04 71.04,-71.04v0c39.23431,0 71.04,31.80569 71.04,71.04v0c0,39.23431 -31.80569,71.04 -71.04,71.04z" fill="none"/><path d="M96,179.52c-46.12682,0 -83.52,-37.39318 -83.52,-83.52v0c0,-46.12682 37.39318,-83.52 83.52,-83.52v0c46.12682,0 83.52,37.39318 83.52,83.52v0c0,46.12682 -37.39318,83.52 -83.52,83.52z" fill="none"/><path d="M96,164.16c-37.64373,0 -68.16,-30.51627 -68.16,-68.16v0c0,-37.64373 30.51627,-68.16 68.16,-68.16h0c37.64373,0 68.16,30.51627 68.16,68.16v0c0,37.64373 -30.51627,68.16 -68.16,68.16z" fill="none"/><path d="M96,176.64c-44.53624,0 -80.64,-36.10376 -80.64,-80.64v0c0,-44.53624 36.10376,-80.64 80.64,-80.64v0c44.53624,0 80.64,36.10376 80.64,80.64v0c0,44.53624 -36.10376,80.64 -80.64,80.64z" fill="none"/><path d="M96,161.28c-36.05315,0 -65.28,-29.22685 -65.28,-65.28v0c0,-36.05315 29.22685,-65.28 65.28,-65.28h0c36.05315,0 65.28,29.22685 65.28,65.28v0c0,36.05315 -29.22685,65.28 -65.28,65.28z" fill="none"/><path d="M96,170.88c-41.35508,0 -74.88,-33.52492 -74.88,-74.88v0c0,-41.35508 33.52492,-74.88 74.88,-74.88h0c41.35508,0 74.88,33.52492 74.88,74.88v0c0,41.35508 -33.52492,74.88 -74.88,74.88z" fill="none"/><path d="M96,155.52c-32.87199,0 -59.52,-26.64801 -59.52,-59.52v0c0,-32.87199 26.64801,-59.52 59.52,-59.52v0c32.87199,0 59.52,26.64801 59.52,59.52v0c0,32.87199 -26.64801,59.52 -59.52,59.52z" fill="none"/><path d="M96,168.96c-40.2947,0 -72.96,-32.6653 -72.96,-72.96v0c0,-40.2947 32.6653,-72.96 72.96,-72.96v0c40.2947,0 72.96,32.6653 72.96,72.96v0c0,40.2947 -32.6653,72.96 -72.96,72.96z" fill="none"/><path d="M96,153.6c-31.8116,0 -57.6,-25.7884 -57.6,-57.6v0c0,-31.8116 25.7884,-57.6 57.6,-57.6h0c31.8116,0 57.6,25.7884 57.6,57.6v0c0,31.8116 -25.7884,57.6 -57.6,57.6z" fill="none"/><path d="M96,167.04c-39.23431,0 -71.04,-31.80569 -71.04,-71.04v0c0,-39.23431 31.80569,-71.04 71.04,-71.04v0c39.23431,0 71.04,31.80569 71.04,71.04v0c0,39.23431 -31.80569,71.04 -71.04,71.04z" fill="none"/><path d="M96,151.68c-30.75121,0 -55.68,-24.92879 -55.68,-55.68v0c0,-30.75121 24.92879,-55.68 55.68,-55.68h0c30.75121,0 55.68,24.92879 55.68,55.68v0c0,30.75121 -24.92879,55.68 -55.68,55.68z" fill="none"/><path d="M96,165.12c-38.17392,0 -69.12,-30.94608 -69.12,-69.12v0c0,-38.17392 30.94608,-69.12 69.12,-69.12h0c38.17392,0 69.12,30.94608 69.12,69.12v0c0,38.17392 -30.94608,69.12 -69.12,69.12z" fill="none"/><path d="M96,149.76c-29.69083,0 -53.76,-24.06917 -53.76,-53.76v0c0,-29.69083 24.06917,-53.76 53.76,-53.76v0c29.69083,0 53.76,24.06917 53.76,53.76v0c0,29.69083 -24.06917,53.76 -53.76,53.76z" fill="none"/><path d="M96,164.16c-37.64373,0 -68.16,-30.51627 -68.16,-68.16v0c0,-37.64373 30.51627,-68.16 68.16,-68.16h0c37.64373,0 68.16,30.51627 68.16,68.16v0c0,37.64373 -30.51627,68.16 -68.16,68.16z" fill="none"/><path d="M96,148.8c-29.16063,0 -52.8,-23.63937 -52.8,-52.8v0c0,-29.16063 23.63937,-52.8 52.8,-52.8v0c29.16063,0 52.8,23.63937 52.8,52.8v0c0,29.16063 -23.63937,52.8 -52.8,52.8z" fill="none"/><path d="M96,166.08c-38.70412,0 -70.08,-31.37588 -70.08,-70.08v0c0,-38.70412 31.37588,-70.08 70.08,-70.08v0c38.70412,0 70.08,31.37588 70.08,70.08v0c0,38.70412 -31.37588,70.08 -70.08,70.08z" fill="none"/><path d="M96,150.72c-30.22102,0 -54.72,-24.49898 -54.72,-54.72v0c0,-30.22102 24.49898,-54.72 54.72,-54.72h0c30.22102,0 54.72,24.49898 54.72,54.72v0c0,30.22102 -24.49898,54.72 -54.72,54.72z" fill="none"/><path d="M96,167.04c-39.23431,0 -71.04,-31.80569 -71.04,-71.04v0c0,-39.23431 31.80569,-71.04 71.04,-71.04v0c39.23431,0 71.04,31.80569 71.04,71.04v0c0,39.23431 -31.80569,71.04 -71.04,71.04z" fill="none"/><path d="M96,151.68c-30.75121,0 -55.68,-24.92879 -55.68,-55.68v0c0,-30.75121 24.92879,-55.68 55.68,-55.68h0c30.75121,0 55.68,24.92879 55.68,55.68v0c0,30.75121 -24.92879,55.68 -55.68,55.68z" fill="none"/><path d="M96,170.88c-41.35508,0 -74.88,-33.52492 -74.88,-74.88v0c0,-41.35508 33.52492,-74.88 74.88,-74.88h0c41.35508,0 74.88,33.52492 74.88,74.88v0c0,41.35508 -33.52492,74.88 -74.88,74.88z" fill="none"/><path d="M96,155.52c-32.87199,0 -59.52,-26.64801 -59.52,-59.52v0c0,-32.87199 26.64801,-59.52 59.52,-59.52v0c32.87199,0 59.52,26.64801 59.52,59.52v0c0,32.87199 -26.64801,59.52 -59.52,59.52z" fill="none"/><path d="M96,174.72c-43.47586,0 -78.72,-35.24414 -78.72,-78.72v0c0,-43.47586 35.24414,-78.72 78.72,-78.72h0c43.47586,0 78.72,35.24414 78.72,78.72v0c0,43.47586 -35.24414,78.72 -78.72,78.72z" fill="none"/><path d="M96,159.36c-34.99276,0 -63.36,-28.36724 -63.36,-63.36v0c0,-34.99276 28.36724,-63.36 63.36,-63.36v0c34.99276,0 63.36,28.36724 63.36,63.36v0c0,34.99276 -28.36724,63.36 -63.36,63.36z" fill="none"/><path d="M96,186.24c-49.83818,0 -90.24,-40.40182 -90.24,-90.24v0c0,-49.83818 40.40182,-90.24 90.24,-90.24v0c49.83818,0 90.24,40.40182 90.24,90.24v0c0,49.83818 -40.40182,90.24 -90.24,90.24z" fill="none"/><path d="M96,170.88c-41.35508,0 -74.88,-33.52492 -74.88,-74.88v0c0,-41.35508 33.52492,-74.88 74.88,-74.88h0c41.35508,0 74.88,33.52492 74.88,74.88v0c0,41.35508 -33.52492,74.88 -74.88,74.88z" fill="none"/><path d="M96,192c-53.01934,0 -96,-42.98066 -96,-96v0c0,-53.01934 42.98066,-96 96,-96h0c53.01934,0 96,42.98066 96,96v0c0,53.01934 -42.98066,96 -96,96z" fill="none"/><path d="M96,176.64c-44.53624,0 -80.64,-36.10376 -80.64,-80.64v0c0,-44.53624 36.10376,-80.64 80.64,-80.64v0c44.53624,0 80.64,36.10376 80.64,80.64v0c0,44.53624 -36.10376,80.64 -80.64,80.64z" fill="none"/><path d="M96,192c-53.01934,0 -96,-42.98066 -96,-96v0c0,-53.01934 42.98066,-96 96,-96h0c53.01934,0 96,42.98066 96,96v0c0,53.01934 -42.98066,96 -96,96z" fill="none"/><path d="M96,180.48c-46.65702,0 -84.48,-37.82298 -84.48,-84.48v0c0,-46.65702 37.82298,-84.48 84.48,-84.48v0c46.65702,0 84.48,37.82298 84.48,84.48v0c0,46.65702 -37.82298,84.48 -84.48,84.48z" fill="none"/><path d="M96,192c-53.01934,0 -96,-42.98066 -96,-96v0c0,-53.01934 42.98066,-96 96,-96h0c53.01934,0 96,42.98066 96,96v0c0,53.01934 -42.98066,96 -96,96z" fill="none"/><path d="M96,184.32c-48.77779,0 -88.32,-39.54221 -88.32,-88.32v0c0,-48.77779 39.54221,-88.32 88.32,-88.32h0c48.77779,0 88.32,39.54221 88.32,88.32v0c0,48.77779 -39.54221,88.32 -88.32,88.32z" fill="none"/><path d="M96,192c-53.01934,0 -96,-42.98066 -96,-96v0c0,-53.01934 42.98066,-96 96,-96h0c53.01934,0 96,42.98066 96,96v0c0,53.01934 -42.98066,96 -96,96z" fill="none"/><path d="M96,184.32c-48.77779,0 -88.32,-39.54221 -88.32,-88.32v0c0,-48.77779 39.54221,-88.32 88.32,-88.32h0c48.77779,0 88.32,39.54221 88.32,88.32v0c0,48.77779 -39.54221,88.32 -88.32,88.32z" fill="none"/><path d="M96,192c-53.01934,0 -96,-42.98066 -96,-96v0c0,-53.01934 42.98066,-96 96,-96h0c53.01934,0 96,42.98066 96,96v0c0,53.01934 -42.98066,96 -96,96z" fill="none"/><path d="M96,184.32c-48.77779,0 -88.32,-39.54221 -88.32,-88.32v0c0,-48.77779 39.54221,-88.32 88.32,-88.32h0c48.77779,0 88.32,39.54221 88.32,88.32v0c0,48.77779 -39.54221,88.32 -88.32,88.32z" fill="none"/><path d="M96,192c-53.01934,0 -96,-42.98066 -96,-96v0c0,-53.01934 42.98066,-96 96,-96h0c53.01934,0 96,42.98066 96,96v0c0,53.01934 -42.98066,96 -96,96z" fill="none"/><path d="M96,184.32c-48.77779,0 -88.32,-39.54221 -88.32,-88.32v0c0,-48.77779 39.54221,-88.32 88.32,-88.32h0c48.77779,0 88.32,39.54221 88.32,88.32v0c0,48.77779 -39.54221,88.32 -88.32,88.32z" fill="none"/><path d="M96,192c-53.01934,0 -96,-42.98066 -96,-96v0c0,-53.01934 42.98066,-96 96,-96h0c53.01934,0 96,42.98066 96,96v0c0,53.01934 -42.98066,96 -96,96z" fill="none"/><path d="M96,184.32c-48.77779,0 -88.32,-39.54221 -88.32,-88.32v0c0,-48.77779 39.54221,-88.32 88.32,-88.32h0c48.77779,0 88.32,39.54221 88.32,88.32v0c0,48.77779 -39.54221,88.32 -88.32,88.32z" fill="none"/><path d="M96,192c-53.01934,0 -96,-42.98066 -96,-96v0c0,-53.01934 42.98066,-96 96,-96h0c53.01934,0 96,42.98066 96,96v0c0,53.01934 -42.98066,96 -96,96z" fill="none"/><path d="M96,184.32c-48.77779,0 -88.32,-39.54221 -88.32,-88.32v0c0,-48.77779 39.54221,-88.32 88.32,-88.32h0c48.77779,0 88.32,39.54221 88.32,88.32v0c0,48.77779 -39.54221,88.32 -88.32,88.32z" fill="none"/><path d="M96,192c-53.01934,0 -96,-42.98066 -96,-96v0c0,-53.01934 42.98066,-96 96,-96h0c53.01934,0 96,42.98066 96,96v0c0,53.01934 -42.98066,96 -96,96z" fill="none"/><path d="M96,184.32c-48.77779,0 -88.32,-39.54221 -88.32,-88.32v0c0,-48.77779 39.54221,-88.32 88.32,-88.32h0c48.77779,0 88.32,39.54221 88.32,88.32v0c0,48.77779 -39.54221,88.32 -88.32,88.32z" fill="none"/><path d="M96,192c-53.01934,0 -96,-42.98066 -96,-96v0c0,-53.01934 42.98066,-96 96,-96h0c53.01934,0 96,42.98066 96,96v0c0,53.01934 -42.98066,96 -96,96z" fill="none"/><path d="M96,184.32c-48.77779,0 -88.32,-39.54221 -88.32,-88.32v0c0,-48.77779 39.54221,-88.32 88.32,-88.32h0c48.77779,0 88.32,39.54221 88.32,88.32v0c0,48.77779 -39.54221,88.32 -88.32,88.32z" fill="none"/><path d="M96,192c-53.01934,0 -96,-42.98066 -96,-96v0c0,-53.01934 42.98066,-96 96,-96h0c53.01934,0 96,42.98066 96,96v0c0,53.01934 -42.98066,96 -96,96z" fill="none"/><path d="M96,184.32c-48.77779,0 -88.32,-39.54221 -88.32,-88.32v0c0,-48.77779 39.54221,-88.32 88.32,-88.32h0c48.77779,0 88.32,39.54221 88.32,88.32v0c0,48.77779 -39.54221,88.32 -88.32,88.32z" fill="none"/><path d="M96,192c-53.01934,0 -96,-42.98066 -96,-96v0c0,-53.01934 42.98066,-96 96,-96h0c53.01934,0 96,42.98066 96,96v0c0,53.01934 -42.98066,96 -96,96z" fill="none"/><path d="M96,184.32c-48.77779,0 -88.32,-39.54221 -88.32,-88.32v0c0,-48.77779 39.54221,-88.32 88.32,-88.32h0c48.77779,0 88.32,39.54221 88.32,88.32v0c0,48.77779 -39.54221,88.32 -88.32,88.32z" fill="none"/><path d="M96,192c-53.01934,0 -96,-42.98066 -96,-96v0c0,-53.01934 42.98066,-96 96,-96h0c53.01934,0 96,42.98066 96,96v0c0,53.01934 -42.98066,96 -96,96z" fill="none"/><path d="M96,184.32c-48.77779,0 -88.32,-39.54221 -88.32,-88.32v0c0,-48.77779 39.54221,-88.32 88.32,-88.32h0c48.77779,0 88.32,39.54221 88.32,88.32v0c0,48.77779 -39.54221,88.32 -88.32,88.32z" fill="none"/><path d="M96,192c-53.01934,0 -96,-42.98066 -96,-96v0c0,-53.01934 42.98066,-96 96,-96h0c53.01934,0 96,42.98066 96,96v0c0,53.01934 -42.98066,96 -96,96z" fill="none"/><path d="M96,184.32c-48.77779,0 -88.32,-39.54221 -88.32,-88.32v0c0,-48.77779 39.54221,-88.32 88.32,-88.32h0c48.77779,0 88.32,39.54221 88.32,88.32v0c0,48.77779 -39.54221,88.32 -88.32,88.32z" fill="none"/><path d="M96,192c-53.01934,0 -96,-42.98066 -96,-96v0c0,-53.01934 42.98066,-96 96,-96h0c53.01934,0 96,42.98066 96,96v0c0,53.01934 -42.98066,96 -96,96z" fill="none"/><path d="M96,184.32c-48.77779,0 -88.32,-39.54221 -88.32,-88.32v0c0,-48.77779 39.54221,-88.32 88.32,-88.32h0c48.77779,0 88.32,39.54221 88.32,88.32v0c0,48.77779 -39.54221,88.32 -88.32,88.32z" fill="none"/><path d="M96,192c-53.01934,0 -96,-42.98066 -96,-96v0c0,-53.01934 42.98066,-96 96,-96h0c53.01934,0 96,42.98066 96,96v0c0,53.01934 -42.98066,96 -96,96z" fill="none"/><path d="M96,184.32c-48.77779,0 -88.32,-39.54221 -88.32,-88.32v0c0,-48.77779 39.54221,-88.32 88.32,-88.32h0c48.77779,0 88.32,39.54221 88.32,88.32v0c0,48.77779 -39.54221,88.32 -88.32,88.32z" fill="none"/><path d="M96,192c-53.01934,0 -96,-42.98066 -96,-96v0c0,-53.01934 42.98066,-96 96,-96h0c53.01934,0 96,42.98066 96,96v0c0,53.01934 -42.98066,96 -96,96z" fill="none"/><path d="M96,184.32c-48.77779,0 -88.32,-39.54221 -88.32,-88.32v0c0,-48.77779 39.54221,-88.32 88.32,-88.32h0c48.77779,0 88.32,39.54221 88.32,88.32v0c0,48.77779 -39.54221,88.32 -88.32,88.32z" fill="none"/><path d="M96,192c-53.01934,0 -96,-42.98066 -96,-96v0c0,-53.01934 42.98066,-96 96,-96h0c53.01934,0 96,42.98066 96,96v0c0,53.01934 -42.98066,96 -96,96z" fill="none"/><path d="M96,184.32c-48.77779,0 -88.32,-39.54221 -88.32,-88.32v0c0,-48.77779 39.54221,-88.32 88.32,-88.32h0c48.77779,0 88.32,39.54221 88.32,88.32v0c0,48.77779 -39.54221,88.32 -88.32,88.32z" fill="none"/><path d="M96,192c-53.01934,0 -96,-42.98066 -96,-96v0c0,-53.01934 42.98066,-96 96,-96h0c53.01934,0 96,42.98066 96,96v0c0,53.01934 -42.98066,96 -96,96z" fill="none"/><path d="M96,184.32c-48.77779,0 -88.32,-39.54221 -88.32,-88.32v0c0,-48.77779 39.54221,-88.32 88.32,-88.32h0c48.77779,0 88.32,39.54221 88.32,88.32v0c0,48.77779 -39.54221,88.32 -88.32,88.32z" fill="none"/><path d="M96,105.6c-5.30193,0 -9.6,-4.29807 -9.6,-9.6v0c0,-5.30193 4.29807,-9.6 9.6,-9.6h0c5.30193,0 9.6,4.29807 9.6,9.6v0c0,5.30193 -4.29807,9.6 -9.6,9.6z" fill="none"/><path d="M96,97.92c-1.06039,0 -1.92,-0.85961 -1.92,-1.92v0c0,-1.06039 0.85961,-1.92 1.92,-1.92v0c1.06039,0 1.92,0.85961 1.92,1.92v0c0,1.06039 -0.85961,1.92 -1.92,1.92z" fill="none"/><path d="M96,201.6c-58.32127,0 -105.6,-47.27873 -105.6,-105.6v0c0,-58.32127 47.27873,-105.6 105.6,-105.6h0c58.32127,0 105.6,47.27873 105.6,105.6v0c0,58.32127 -47.27873,105.6 -105.6,105.6z" fill="none"/><path d="M96,193.92c-54.07972,0 -97.92,-43.84028 -97.92,-97.92v0c0,-54.07972 43.84028,-97.92 97.92,-97.92h0c54.07972,0 97.92,43.84028 97.92,97.92v0c0,54.07972 -43.84028,97.92 -97.92,97.92z" fill="none"/><path d="M96,105.6c-5.30193,0 -9.6,-4.29807 -9.6,-9.6v0c0,-5.30193 4.29807,-9.6 9.6,-9.6h0c5.30193,0 9.6,4.29807 9.6,9.6v0c0,5.30193 -4.29807,9.6 -9.6,9.6z" fill="none"/><path d="M96,97.92c-1.06039,0 -1.92,-0.85961 -1.92,-1.92v0c0,-1.06039 0.85961,-1.92 1.92,-1.92v0c1.06039,0 1.92,0.85961 1.92,1.92v0c0,1.06039 -0.85961,1.92 -1.92,1.92z" fill="none"/><path d="M96,192c-53.01934,0 -96,-42.98066 -96,-96v0c0,-53.01934 42.98066,-96 96,-96h0c53.01934,0 96,42.98066 96,96v0c0,53.01934 -42.98066,96 -96,96z" fill="none"/><path d="M96,184.32c-48.77779,0 -88.32,-39.54221 -88.32,-88.32v0c0,-48.77779 39.54221,-88.32 88.32,-88.32h0c48.77779,0 88.32,39.54221 88.32,88.32v0c0,48.77779 -39.54221,88.32 -88.32,88.32z" fill="none"/><path d="M96,192c-53.01934,0 -96,-42.98066 -96,-96v0c0,-53.01934 42.98066,-96 96,-96h0c53.01934,0 96,42.98066 96,96v0c0,53.01934 -42.98066,96 -96,96z" fill="none"/><path d="M96,180.48c-46.65702,0 -84.48,-37.82298 -84.48,-84.48v0c0,-46.65702 37.82298,-84.48 84.48,-84.48v0c46.65702,0 84.48,37.82298 84.48,84.48v0c0,46.65702 -37.82298,84.48 -84.48,84.48z" fill="none"/><path d="M96,192c-53.01934,0 -96,-42.98066 -96,-96v0c0,-53.01934 42.98066,-96 96,-96h0c53.01934,0 96,42.98066 96,96v0c0,53.01934 -42.98066,96 -96,96z" fill="none"/><path d="M96,180.48c-46.65702,0 -84.48,-37.82298 -84.48,-84.48v0c0,-46.65702 37.82298,-84.48 84.48,-84.48v0c46.65702,0 84.48,37.82298 84.48,84.48v0c0,46.65702 -37.82298,84.48 -84.48,84.48z" fill="none"/></g></g></svg>
